<svg width="24" height="24" viewBox="0 0 24 24" fill="none" xmlns="http://www.w3.org/2000/svg">
<path d="M11.6552 5.78794C11.3997 4.39528 12.0582 2.96208 12.8513 1.99622C13.7252 0.930516 15.2251 0.11325 16.5069 0.0234375C16.7234 1.48355 16.1275 2.90616 15.3431 3.91242C14.5017 4.99345 13.0551 5.83177 11.6552 5.78794ZM19.1735 10.8343C19.5701 9.72773 20.3558 8.73216 21.5747 8.06044C20.343 6.52331 18.6135 5.63091 16.9815 5.63091C14.8222 5.63091 13.9092 6.65967 12.4094 6.65967C10.8644 6.65967 9.69226 5.63091 7.8219 5.63091C5.98782 5.63091 4.03552 6.74878 2.79737 8.65795C2.34212 9.36366 2.03373 10.2404 1.86554 11.2169C1.39885 13.9562 2.09598 17.5242 4.17549 20.6924C5.18659 22.2297 6.53429 23.9613 8.29492 23.9764C9.86331 23.9917 10.3082 22.9736 12.4314 22.9631C14.5578 22.951 14.9608 23.9869 16.527 23.972C18.2881 23.9571 19.7101 22.0408 20.7212 20.5036C21.4412 19.4006 21.7134 18.8434 22.2732 17.5963C19.4266 16.5228 18.2559 13.3861 19.1735 10.8343Z" fill="black"/>
</svg>
