<svg width="51" height="45" viewBox="0 0 51 45" fill="none" xmlns="http://www.w3.org/2000/svg">
<path d="M4.5375 45C3.3875 45 2.4275 44.615 1.6575 43.845C0.885833 43.0733 0.5 42.1125 0.5 40.9625V14.0375C0.5 12.8875 0.885833 11.9275 1.6575 11.1575C2.4275 10.3858 3.3875 10 4.5375 10H11.9325L16.5575 5H29.5375V7.5H17.6375L13.0325 12.5H4.5375C4.08917 12.5 3.72083 12.6442 3.4325 12.9325C3.14417 13.2208 3 13.5892 3 14.0375V40.9625C3 41.4108 3.14417 41.7792 3.4325 42.0675C3.72083 42.3558 4.08917 42.5 4.5375 42.5H41.4625C41.9108 42.5 42.2792 42.3558 42.5675 42.0675C42.8558 41.7792 43 41.4108 43 40.9625V20.9625H45.5V40.9625C45.5 42.1125 45.115 43.0725 44.345 43.8425C43.5733 44.6142 42.6125 45 41.4625 45H4.5375ZM43 12.5V7.5H38V5H43V0H45.5V5H50.5V7.5H45.5V12.5H43ZM23 36.825C25.6117 36.825 27.82 35.925 29.625 34.125C31.425 32.32 32.325 30.1117 32.325 27.5C32.325 24.8883 31.425 22.68 29.625 20.875C27.8183 19.075 25.61 18.175 23 18.175C20.39 18.175 18.1817 19.075 16.375 20.875C14.575 22.68 13.675 24.8883 13.675 27.5C13.675 30.1117 14.5758 32.32 16.3775 34.125C18.1808 35.925 20.3883 36.825 23 36.825ZM23 34.325C21.0583 34.325 19.435 33.6733 18.13 32.37C16.825 31.0667 16.1725 29.4433 16.1725 27.5C16.1725 25.5583 16.825 23.935 18.13 22.63C19.435 21.325 21.0583 20.6725 23 20.6725C24.9417 20.6725 26.565 21.325 27.87 22.63C29.175 23.935 29.8275 25.5583 29.8275 27.5C29.8275 29.4417 29.175 31.065 27.87 32.37C26.565 33.675 24.9417 34.3275 23 34.3275" fill="white"/>
</svg>
