<svg width="20" height="20" viewBox="0 0 20 20" fill="none" xmlns="http://www.w3.org/2000/svg">
<path d="M9.99988 19C11.9968 18.9997 13.9369 18.3353 15.5148 17.1114C17.0926 15.8874 18.2186 14.1735 18.7155 12.2394C19.2124 10.3053 19.0519 8.26084 18.2593 6.42795C17.4668 4.59506 16.0871 3.0778 14.3376 2.11506C12.5881 1.15231 10.5681 0.798747 8.59558 1.11004C6.62308 1.42132 4.81012 2.37978 3.44213 3.83452C2.07413 5.28925 1.22879 7.15764 1.0392 9.14553C0.849609 11.1334 1.32653 13.1279 2.39488 14.815L0.999878 19L5.18488 17.605C6.62441 18.5188 8.29482 19.0027 9.99988 19Z" fill="black" stroke="black" stroke-width="2" stroke-linecap="round" stroke-linejoin="round"/>
</svg>
