<svg width="15" height="24" viewBox="0 0 15 24" fill="none" xmlns="http://www.w3.org/2000/svg">
<path d="M13.1405 6C12.5874 6 12.1421 6.44531 12.1421 6.99844V16.9969C12.1421 19.7578 9.90615 21.9984 7.14053 21.9984C4.3749 21.9984 2.13897 19.7578 2.13897 16.9969V4.99687C2.13897 3.34219 3.47959 1.99687 5.13897 1.99687C6.79834 1.99687 8.13896 3.34219 8.13896 4.99687V15C8.13896 15.5531 7.68896 15.9984 7.14053 15.9984C6.59209 15.9984 6.14209 15.5531 6.14209 15V6.99844C6.14209 6.44531 5.69209 6 5.14365 6C4.59053 6 4.14522 6.44531 4.14522 6.99844V15C4.14522 16.6594 5.48584 18 7.14522 18C8.80459 18 10.1452 16.6594 10.1452 15V5.00156C10.1405 2.24062 7.8999 0 5.13897 0C2.37803 0 0.14209 2.24062 0.14209 5.00156V17.0016C0.14209 20.8688 3.27803 24 7.14053 24C11.003 24 14.139 20.8641 14.139 17.0016V6.99844C14.139 6.44531 13.6937 6 13.1405 6Z" fill="white"/>
</svg>
