<svg width="18" height="22" viewBox="0 0 18 22" fill="none" xmlns="http://www.w3.org/2000/svg">
<path fill-rule="evenodd" clip-rule="evenodd" d="M9.00023 0.40003C7.60144 0.398167 6.2491 0.901882 5.19237 1.81837C4.13564 2.73485 3.44572 4.00236 3.24973 5.38736C3.05373 6.77235 3.36487 8.18152 4.12582 9.35523C4.88676 10.5289 6.04625 11.3881 7.39063 11.7744C5.48023 12.0064 3.84183 12.6816 2.60663 13.8992C1.03543 15.4464 0.240234 17.752 0.240234 20.76C0.240234 20.9616 0.320305 21.1549 0.462833 21.2974C0.605361 21.44 0.79867 21.52 1.00023 21.52C1.2018 21.52 1.39511 21.44 1.53764 21.2974C1.68016 21.1549 1.76023 20.9616 1.76023 20.76C1.76023 18.008 2.48503 16.152 3.67383 14.9808C4.86423 13.808 6.64343 13.2 9.00023 13.2C11.357 13.2 13.1362 13.808 14.3282 14.9808C15.5154 16.1536 16.2402 18.008 16.2402 20.76C16.2402 20.9616 16.3203 21.1549 16.4628 21.2974C16.6054 21.44 16.7987 21.52 17.0002 21.52C17.2018 21.52 17.3951 21.44 17.5376 21.2974C17.6802 21.1549 17.7602 20.9616 17.7602 20.76C17.7602 17.752 16.965 15.448 15.3922 13.8992C14.1602 12.6832 12.5202 12.0064 10.6098 11.7744C11.9497 11.3838 13.104 10.5233 13.8609 9.3507C14.6179 8.17813 14.9269 6.77202 14.7314 5.3901C14.5358 4.00817 13.8488 2.74302 12.7962 1.82652C11.7436 0.910027 10.3959 0.403587 9.00023 0.40003ZM4.72023 6.20003C4.72023 5.0649 5.17116 3.97627 5.97382 3.17361C6.77647 2.37096 7.86511 1.92003 9.00023 1.92003C10.1354 1.92003 11.224 2.37096 12.0267 3.17361C12.8293 3.97627 13.2802 5.0649 13.2802 6.20003C13.2802 7.33516 12.8293 8.42379 12.0267 9.22645C11.224 10.0291 10.1354 10.48 9.00023 10.48C7.86511 10.48 6.77647 10.0291 5.97382 9.22645C5.17116 8.42379 4.72023 7.33516 4.72023 6.20003Z" fill="black"/>
</svg>
