<svg width="30" height="30" viewBox="0 0 30 30" fill="none" xmlns="http://www.w3.org/2000/svg">
<path d="M29.9137 24.6084L24.4275 14.4628C24.9872 13.1925 25.3003 11.7885 25.3003 10.3115C25.3003 4.61901 20.6855 0.00463867 14.9934 0.00463867C9.3 0.00463867 4.68562 4.61948 4.68562 10.3115C4.68562 11.8242 5.01422 13.2595 5.59922 14.5532L0.088591 24.6037C-0.0890946 24.9267 -0.0595633 25.3251 0.162624 25.62C0.38528 25.9139 0.761218 26.0521 1.12025 25.9678L5.82603 24.8883L7.43666 29.3742C7.56228 29.7229 7.88056 29.9648 8.24947 29.992C8.27341 29.9939 8.29634 29.9948 8.31884 29.9948C8.48836 29.9948 8.65469 29.9487 8.80013 29.8617C8.94557 29.7746 9.06468 29.6497 9.14478 29.5003L13.9406 20.5655C14.2902 20.6009 14.6415 20.6186 14.9929 20.6184C15.3187 20.6184 15.6402 20.6016 15.958 20.5716L20.8579 29.5074C20.9446 29.6657 21.0752 29.7957 21.2341 29.8816C21.3929 29.9675 21.5732 30.0057 21.7532 29.9915C22.1212 29.962 22.438 29.7206 22.5627 29.3737L24.1733 24.8878L28.8791 25.9673C29.24 26.0545 29.6122 25.9143 29.8349 25.6214C30.0585 25.3289 30.0885 24.9323 29.9136 24.6084H29.9137ZM8.48941 26.7581L7.30998 23.4721C7.14873 23.0254 6.68094 22.7652 6.21779 22.8754L2.73732 23.6737L6.70441 16.438C8.01082 18.2029 9.86707 19.5341 12.02 20.182L8.48941 26.7581ZM6.56891 10.3115C6.56891 5.66664 10.3485 1.88758 14.9938 1.88758C19.6386 1.88758 23.4177 5.66664 23.4177 10.3115C23.4177 14.9563 19.6386 18.7363 14.9938 18.7363C10.348 18.7363 6.56891 14.9563 6.56891 10.3115ZM23.7814 22.8754C23.3164 22.7657 22.8505 23.0254 22.6892 23.4721L21.5019 26.7819L17.8939 20.203C20.104 19.5556 22.0053 18.1893 23.3286 16.3729L27.2792 23.6774L23.7814 22.8754Z" fill="#FF81AE"/>
</svg>
