<svg width="24" height="24" viewBox="0 0 24 24" fill="none" xmlns="http://www.w3.org/2000/svg">
<path d="M22.5 12C22.5 9.21523 21.3938 6.54451 19.4246 4.57538C17.4555 2.60625 14.7848 1.5 12 1.5C9.35603 1.49756 6.80845 2.49269 4.86616 4.28661C2.92386 6.08053 1.72985 8.54118 1.52262 11.177C1.31538 13.8129 2.11019 16.4299 3.74828 18.5053C5.38637 20.5807 7.74713 21.9617 10.359 22.3725V15.0345H7.69501V12H10.3605V9.687C10.3605 7.056 11.928 5.601 14.3265 5.601C15.4755 5.601 16.677 5.8065 16.677 5.8065V8.391H15.3525C14.0475 8.391 13.6425 9.201 13.6425 10.0305V12H16.554L16.089 15.0345H13.641V22.3725C16.1108 21.9814 18.3599 20.7219 19.9839 18.8204C21.6079 16.919 22.5001 14.5005 22.5 12Z" fill="#1877F2"/>
<path d="M16.0875 15.0346L16.5525 12.0001H13.641V10.0306C13.641 9.20111 14.046 8.39111 15.351 8.39111H16.6755V5.80511C16.6755 5.80511 15.474 5.59961 14.325 5.59961C11.925 5.59961 10.359 7.05461 10.359 9.68561V12.0001H7.69501V15.0346H10.3605V22.3726C11.4478 22.5437 12.5552 22.5437 13.6425 22.3726V15.0346H16.0875Z" fill="white"/>
</svg>
