<svg width="51" height="40" viewBox="0 0 51 40" fill="none" xmlns="http://www.w3.org/2000/svg">
<path d="M1.125 29.375L14.0225 16.4775C14.5448 15.9552 15.1649 15.5408 15.8474 15.2581C16.5299 14.9754 17.2613 14.83 18 14.83C18.7387 14.83 19.4701 14.9754 20.1526 15.2581C20.8351 15.5408 21.4552 15.9552 21.9775 16.4775L34.875 29.375M31.125 25.625L34.6475 22.1025C35.1698 21.5802 35.7899 21.1658 36.4724 20.8831C37.1549 20.6004 37.8863 20.455 38.625 20.455C39.3637 20.455 40.0951 20.6004 40.7776 20.8831C41.4601 21.1658 42.0802 21.5802 42.6025 22.1025L49.875 29.375M4.875 38.75H46.125C47.1196 38.75 48.0734 38.3549 48.7766 37.6516C49.4799 36.9484 49.875 35.9946 49.875 35V5C49.875 4.00544 49.4799 3.05161 48.7766 2.34835C48.0734 1.64509 47.1196 1.25 46.125 1.25H4.875C3.88044 1.25 2.92661 1.64509 2.22335 2.34835C1.52009 3.05161 1.125 4.00544 1.125 5V35C1.125 35.9946 1.52009 36.9484 2.22335 37.6516C2.92661 38.3549 3.88044 38.75 4.875 38.75ZM31.125 10.625H31.145V10.645H31.125V10.625ZM32.0625 10.625C32.0625 10.8736 31.9637 11.1121 31.7879 11.2879C31.6121 11.4637 31.3736 11.5625 31.125 11.5625C30.8764 11.5625 30.6379 11.4637 30.4621 11.2879C30.2863 11.1121 30.1875 10.8736 30.1875 10.625C30.1875 10.3764 30.2863 10.1379 30.4621 9.96209C30.6379 9.78627 30.8764 9.6875 31.125 9.6875C31.3736 9.6875 31.6121 9.78627 31.7879 9.96209C31.9637 10.1379 32.0625 10.3764 32.0625 10.625Z" stroke="white" stroke-width="1.5" stroke-linecap="round" stroke-linejoin="round"/>
</svg>
