<svg width="24" height="24" viewBox="0 0 24 24" fill="none" xmlns="http://www.w3.org/2000/svg">
<g clip-path="url(#clip0_74_648)">
<path fill-rule="evenodd" clip-rule="evenodd" d="M5.38007 12.2667C5.38007 11.4872 5.51235 10.74 5.74844 10.039L1.61597 6.95068C0.810579 8.55105 0.356812 10.3543 0.356812 12.2667C0.356812 14.1774 0.810021 15.9796 1.6143 17.5789L5.74453 14.4845C5.51067 13.7869 5.38007 13.0423 5.38007 12.2667Z" fill="#FBBC05"/>
<path fill-rule="evenodd" clip-rule="evenodd" d="M12.6359 5.17569C14.3662 5.17569 15.929 5.77569 17.1569 6.75751L20.729 3.2666C18.5522 1.41206 15.7615 0.266602 12.6359 0.266602C7.78347 0.266602 3.61305 2.98242 1.61603 6.9506L5.74849 10.039C6.70068 7.21024 9.41491 5.17569 12.6359 5.17569Z" fill="#EB4335"/>
<path fill-rule="evenodd" clip-rule="evenodd" d="M12.6359 19.3574C9.41485 19.3574 6.70062 17.3229 5.74843 14.4941L1.61597 17.582C3.61299 21.5507 7.78341 24.2665 12.6359 24.2665C15.6309 24.2665 18.4902 23.2258 20.6362 21.2758L16.7136 18.308C15.6069 18.9903 14.2132 19.3574 12.6359 19.3574Z" fill="#34A853"/>
<path fill-rule="evenodd" clip-rule="evenodd" d="M24.3568 12.2668C24.3568 11.5577 24.2452 10.7941 24.0777 10.085H12.6359V14.7213H19.2219C18.8926 16.3021 17.9962 17.5173 16.7136 18.3082L20.6362 21.2761C22.8906 19.2284 24.3568 16.1782 24.3568 12.2668Z" fill="#4285F4"/>
</g>
<defs>
<clipPath id="clip0_74_648">
<rect width="24" height="24" fill="white"/>
</clipPath>
</defs>
</svg>
