<svg width="18" height="18" viewBox="0 0 18 18" fill="none" xmlns="http://www.w3.org/2000/svg">
<path d="M17.21 16.365L14.22 8.005C14.01 7.455 13.54 7.115 13 7.115C12.46 7.115 12 7.455 11.77 8.025L8.79 16.365C8.65 16.755 8.85 17.185 9.24 17.325C9.63 17.465 10.06 17.265 10.2 16.875L10.82 15.145H15.17L15.79 16.875C15.9 17.185 16.19 17.375 16.5 17.375C16.58 17.375 16.67 17.365 16.75 17.335C17.14 17.195 17.34 16.765 17.2 16.375L17.21 16.365ZM11.37 13.635L13.01 9.045L14.65 13.635H11.37ZM8.82 4.845C6.55999 8.415 4.52 10.575 2.04 12.015C1.92 12.085 1.79 12.115 1.67 12.115C1.41 12.115 1.16 11.985 1.02 11.745C0.81 11.385 0.93 10.925 1.29 10.725C3.38999 9.505 5.11 7.755 7.04 4.855H0.75C0.34 4.855 0 4.515 0 4.105C0 3.695 0.34 3.355 0.75 3.355H4.5V1.375C4.5 0.965 4.84 0.625 5.25 0.625C5.65999 0.625 6 0.965 6 1.375V3.355H9.75C10.16 3.355 10.5 3.695 10.5 4.105C10.5 4.515 10.16 4.855 9.75 4.855H8.81L8.82 4.845ZM8.86 12.115C8.73 12.115 8.6 12.085 8.48 12.015C7.83 11.635 7.2 11.215 6.60999 10.775C6.27999 10.525 6.21 10.055 6.46 9.725C6.71 9.395 7.18 9.325 7.51 9.575C8.05 9.985 8.64 10.365 9.24 10.715C9.6 10.925 9.72 11.385 9.51 11.745C9.37 11.985 9.12 12.115 8.86 12.115Z" fill="black"/>
</svg>
