<svg width="24" height="24" viewBox="0 0 24 24" fill="none" xmlns="http://www.w3.org/2000/svg">
<g clip-path="url(#clip0_74_806)">
<path d="M12 22.1176C7.5 22.1176 4.5 13.0576 4.5 9.36755C4.5 7.37843 5.29018 5.47078 6.6967 4.06425C8.10322 2.65773 10.0109 1.86755 12 1.86755C13.9891 1.86755 15.8968 2.65773 17.3033 4.06425C18.7098 5.47078 19.5 7.37843 19.5 9.36755C19.5 13.0576 16.5 22.1176 12 22.1176ZM12 3.36755C10.4087 3.36755 8.88258 3.99969 7.75736 5.12491C6.63214 6.25013 6 7.77625 6 9.36755C6 12.8776 8.9025 20.6176 12 20.6176C15.0975 20.6176 18 12.8926 18 9.36755C17.996 7.77886 17.3621 6.25658 16.2373 5.13461C15.1126 4.01263 13.5887 3.38255 12 3.38255V3.36755Z" fill="#17061C"/>
<path d="M12 12.4725C13.6527 12.4725 14.9925 11.1328 14.9925 9.48005C14.9925 7.82734 13.6527 6.48755 12 6.48755C10.3473 6.48755 9.00751 7.82734 9.00751 9.48005C9.00751 11.1328 10.3473 12.4725 12 12.4725Z" fill="#FE0707"/>
<path d="M12 13.2225C11.2583 13.2225 10.5333 13.0026 9.91661 12.5905C9.29993 12.1785 8.81928 11.5928 8.53545 10.9076C8.25162 10.2224 8.17736 9.46838 8.32206 8.74095C8.46675 8.01352 8.8239 7.34533 9.34835 6.82089C9.8728 6.29644 10.541 5.93929 11.2684 5.79459C11.9958 5.6499 12.7498 5.72416 13.4351 6.00799C14.1203 6.29182 14.706 6.77246 15.118 7.38915C15.5301 8.00583 15.75 8.73086 15.75 9.47254C15.75 10.4671 15.3549 11.4209 14.6517 12.1242C13.9484 12.8274 12.9946 13.2225 12 13.2225ZM12 7.22254C11.555 7.22254 11.12 7.3545 10.75 7.60173C10.38 7.84896 10.0916 8.20036 9.92127 8.6115C9.75098 9.02263 9.70642 9.47503 9.79323 9.91149C9.88005 10.3479 10.0943 10.7489 10.409 11.0635C10.7237 11.3782 11.1246 11.5925 11.561 11.6793C11.9975 11.7661 12.4499 11.7216 12.861 11.5513C13.2722 11.381 13.6236 11.0926 13.8708 10.7226C14.118 10.3526 14.25 9.91754 14.25 9.47254C14.2441 8.87971 14.0044 8.31317 13.5831 7.89607C13.1618 7.47897 12.5929 7.24501 12 7.24504V7.22254Z" fill="#17061C"/>
</g>
<defs>
<clipPath id="clip0_74_806">
<rect width="24" height="24" fill="white"/>
</clipPath>
</defs>
</svg>
