<svg id="Group_26478" data-name="Group 26478" xmlns="http://www.w3.org/2000/svg" width="20" height="20" viewBox="0 0 20 20">
  <rect id="Rectangle_11394" data-name="Rectangle 11394" width="20" height="20" fill="#fff" opacity="0"/>
  <path id="search" d="M15.18,14.661,11.1,10.285a6.024,6.024,0,0,0,1.685-4.2A5.865,5.865,0,0,0,7.022.14,5.865,5.865,0,0,0,1.257,6.088a5.865,5.865,0,0,0,5.765,5.947A5.633,5.633,0,0,0,10.7,10.666l4.089,4.387a.269.269,0,0,0,.388.008A.29.29,0,0,0,15.18,14.661ZM7.022,11.468A5.306,5.306,0,0,1,1.806,6.088,5.306,5.306,0,0,1,7.022.707a5.306,5.306,0,0,1,5.216,5.381A5.306,5.306,0,0,1,7.022,11.468Z" transform="translate(1.743 2.859)" fill="#858585" stroke="#858585" stroke-width="1"/>
</svg>
