<svg width="343" height="350" viewBox="0 0 343 350" fill="none" xmlns="http://www.w3.org/2000/svg">
<path d="M2.65186 349.252L44.9277 349.057L87.2115 348.984L171.771 348.854L256.331 348.984L298.615 349.057L340.89 349.252L298.615 349.455L256.331 349.529L171.771 349.659L87.2115 349.529L44.9277 349.455L2.65186 349.252Z" fill="#263238"/>
<path d="M313.187 35.0442V239.086C313.187 244.852 308.935 249.512 303.691 249.512H209.939C204.687 249.512 200.435 244.852 200.435 239.086V35.0442C200.435 23.2924 204.687 22.7231 209.939 22.7231H228.723C229.812 22.7231 230.709 23.9837 230.709 25.5452V26.2202C230.709 29.8799 232.678 29.8881 235.096 29.8881H278.525C280.967 29.8881 282.929 29.8881 282.929 26.2202V25.5452C282.929 23.9837 283.81 22.7231 284.915 22.7231H303.691C308.935 22.7231 313.187 24.2846 313.187 35.0442Z" fill="white"/>
<path d="M313.187 35.0442V55.0101H200.435V35.0442C200.435 23.2924 204.687 22.7231 209.939 22.7231H228.723C229.812 22.7231 230.709 23.9837 230.709 25.5452V26.2202C230.709 29.8799 232.678 29.8881 235.096 29.8881H278.525C280.967 29.8881 282.929 29.8881 282.929 26.2202V25.5452C282.929 23.9837 283.81 22.7231 284.915 22.7231H303.691C308.935 22.7231 313.187 24.2846 313.187 35.0442Z" fill="#99A1FF"/>
<path d="M225.481 27.3102L225.296 27.4891L225.2 27.5948C224.971 27.3605 224.699 27.1745 224.398 27.0476C224.098 26.9207 223.776 26.8554 223.451 26.8554C223.126 26.8554 222.804 26.9207 222.503 27.0476C222.203 27.1745 221.931 27.3605 221.701 27.5948L221.597 27.4891L221.413 27.3102L221.645 27.0987C221.807 26.9635 221.985 26.8488 222.174 26.7572C222.396 26.6434 222.634 26.5613 222.878 26.5132H223.231H223.535H223.775C223.997 26.5394 224.215 26.5941 224.424 26.6758C224.575 26.7269 224.72 26.7951 224.856 26.8792C225.002 26.9654 225.141 27.0633 225.272 27.1719L225.465 27.3509L225.481 27.3102Z" fill="white"/>
<path d="M222.277 28.1723L221.989 27.8876C222.302 27.5646 222.709 27.3533 223.15 27.2858C223.469 27.2396 223.794 27.2692 224.1 27.3722C224.405 27.4753 224.683 27.6489 224.912 27.8795L224.623 28.1723C224.311 27.855 223.888 27.6765 223.446 27.6762C223.229 27.6738 223.013 27.7165 222.812 27.8018C222.611 27.8871 222.429 28.0132 222.277 28.1723Z" fill="white"/>
<path d="M224.335 28.4647L224.047 28.7493C223.969 28.6681 223.875 28.6037 223.772 28.5597C223.669 28.5157 223.559 28.493 223.447 28.493C223.335 28.493 223.224 28.5157 223.121 28.5597C223.018 28.6037 222.924 28.6681 222.846 28.7493L222.566 28.4565C222.682 28.3378 222.82 28.2437 222.972 28.1797C223.124 28.1158 223.288 28.0832 223.452 28.084C223.617 28.0848 223.78 28.1188 223.932 28.1842C224.083 28.2495 224.22 28.3449 224.335 28.4647Z" fill="white"/>
<path d="M223.703 29.0176C223.703 29.069 223.688 29.1194 223.66 29.1622C223.632 29.205 223.592 29.2383 223.545 29.258C223.498 29.2777 223.446 29.2829 223.397 29.2728C223.347 29.2628 223.301 29.238 223.265 29.2016C223.23 29.1652 223.205 29.1188 223.195 29.0683C223.185 29.0179 223.191 28.9655 223.21 28.918C223.229 28.8704 223.262 28.8298 223.304 28.8012C223.346 28.7726 223.396 28.7573 223.447 28.7573C223.515 28.7573 223.58 28.7847 223.628 28.8335C223.676 28.8824 223.703 28.9485 223.703 29.0176Z" fill="white"/>
<path d="M207.801 27.8629C207.8 27.7114 207.843 27.5628 207.924 27.436C208.006 27.3092 208.123 27.21 208.26 27.1509C208.398 27.0918 208.549 27.0755 208.696 27.104C208.842 27.1326 208.977 27.2048 209.083 27.3114C209.189 27.4179 209.262 27.5541 209.291 27.7026C209.321 27.8512 209.307 28.0053 209.25 28.1455C209.193 28.2856 209.097 28.4055 208.973 28.4899C208.849 28.5742 208.703 28.6193 208.554 28.6193C208.455 28.6204 208.358 28.6016 208.267 28.5641C208.175 28.5265 208.092 28.471 208.022 28.4006C207.952 28.3303 207.897 28.2466 207.859 28.1543C207.821 28.062 207.801 27.963 207.801 27.8629Z" fill="white"/>
<path d="M210.892 28.6196C211.303 28.6196 211.637 28.281 211.637 27.8633C211.637 27.4456 211.303 27.1069 210.892 27.1069C210.481 27.1069 210.147 27.4456 210.147 27.8633C210.147 28.281 210.481 28.6196 210.892 28.6196Z" fill="white"/>
<path d="M212.493 27.8629C212.492 27.7114 212.534 27.5628 212.616 27.436C212.698 27.3092 212.815 27.21 212.952 27.1509C213.09 27.0918 213.241 27.0755 213.388 27.104C213.534 27.1326 213.669 27.2048 213.775 27.3114C213.881 27.4179 213.954 27.5541 213.983 27.7026C214.013 27.8512 213.999 28.0053 213.942 28.1455C213.885 28.2856 213.789 28.4055 213.665 28.4899C213.541 28.5742 213.395 28.6193 213.246 28.6193C213.147 28.6204 213.05 28.6016 212.958 28.5641C212.867 28.5265 212.784 28.471 212.714 28.4006C212.644 28.3303 212.589 28.2466 212.551 28.1543C212.513 28.062 212.493 27.963 212.493 27.8629Z" fill="white"/>
<path d="M214.848 27.8629C214.846 27.711 214.889 27.5621 214.971 27.4351C215.053 27.3082 215.171 27.2089 215.309 27.1501C215.446 27.0912 215.598 27.0754 215.745 27.1046C215.892 27.1339 216.027 27.2068 216.133 27.3142C216.238 27.4216 216.31 27.5586 216.339 27.7077C216.368 27.8567 216.352 28.0111 216.294 28.1511C216.236 28.2911 216.138 28.4104 216.013 28.4938C215.888 28.5772 215.742 28.6209 215.592 28.6192C215.395 28.6192 215.205 28.5396 215.066 28.3977C214.926 28.2559 214.848 28.0635 214.848 27.8629Z" fill="white"/>
<path d="M217.201 27.8629C217.2 27.711 217.243 27.5621 217.325 27.4351C217.407 27.3082 217.524 27.2089 217.662 27.1501C217.8 27.0912 217.952 27.0754 218.099 27.1046C218.245 27.1339 218.38 27.2068 218.486 27.3142C218.592 27.4216 218.664 27.5586 218.692 27.7077C218.721 27.8567 218.706 28.0111 218.648 28.1511C218.59 28.2911 218.492 28.4104 218.367 28.4938C218.242 28.5772 218.095 28.6209 217.946 28.6192C217.748 28.6192 217.559 28.5396 217.419 28.3977C217.28 28.2559 217.201 28.0635 217.201 27.8629Z" fill="white"/>
<path d="M304.732 29.5219H298.646V26.6592H304.732V29.5219ZM298.959 29.2047H304.419V26.9682H298.959V29.2047Z" fill="white"/>
<path d="M303.074 27.1475H299.151V29.0343H303.074V27.1475Z" fill="white"/>
<path d="M305.284 27.3262H304.74V28.8551H305.284V27.3262Z" fill="white"/>
<path d="M211.517 49.5856L208.058 46.2918L211.517 42.998L212.053 43.5836L209.203 46.2918L212.053 49.0081L211.517 49.5856Z" fill="white"/>
<path d="M305.004 44.104H298.743V44.7953H305.004V44.104Z" fill="white"/>
<path d="M305.004 46.6738H298.743V47.3651H305.004V46.6738Z" fill="white"/>
<path d="M305.004 49.2437H298.743V49.9349H305.004V49.2437Z" fill="white"/>
<path d="M261.463 187.134H297.91V160.345H261.463V187.134Z" fill="#99A1FF"/>
<path opacity="0.2" d="M266.115 167.25C266.01 167.786 266.078 168.342 266.309 168.835C266.539 169.329 266.92 169.734 267.395 169.991C267.87 170.248 268.413 170.343 268.945 170.262C269.477 170.18 269.969 169.928 270.349 169.541C270.728 169.153 270.975 168.653 271.053 168.112C271.131 167.571 271.035 167.02 270.78 166.538C270.525 166.057 270.125 165.672 269.638 165.44C269.151 165.208 268.604 165.141 268.076 165.249C267.591 165.348 267.145 165.591 266.796 165.947C266.447 166.303 266.21 166.757 266.115 167.25Z" fill="black"/>
<path opacity="0.2" d="M278.165 181.133H297.91L288.037 169.877L278.165 181.133Z" fill="black"/>
<path d="M270.583 181.141H286.893L278.742 173.813L270.583 181.141Z" fill="#99A1FF"/>
<path opacity="0.3" d="M270.583 181.141H286.893L278.742 173.813L270.583 181.141Z" fill="black"/>
<path d="M297.91 181.125H261.463V187.126H297.91V181.125Z" fill="#99A1FF"/>
<path opacity="0.3" d="M297.91 181.125H261.463V187.126H297.91V181.125Z" fill="black"/>
<path d="M214.495 187.134H250.942V160.345H214.495V187.134Z" fill="#99A1FF"/>
<path opacity="0.2" d="M219.147 167.25C219.042 167.786 219.11 168.342 219.341 168.835C219.572 169.329 219.952 169.734 220.427 169.991C220.902 170.248 221.445 170.343 221.977 170.262C222.509 170.18 223.001 169.928 223.381 169.541C223.761 169.153 224.007 168.653 224.085 168.112C224.163 167.571 224.067 167.02 223.812 166.538C223.558 166.057 223.157 165.672 222.67 165.44C222.183 165.208 221.636 165.141 221.108 165.249C220.623 165.348 220.178 165.591 219.828 165.947C219.479 166.303 219.242 166.757 219.147 167.25Z" fill="black"/>
<path opacity="0.2" d="M231.197 181.133H250.942L241.07 169.877L231.197 181.133Z" fill="black"/>
<path d="M223.615 181.141H239.925L231.774 173.813L223.615 181.141Z" fill="#99A1FF"/>
<path opacity="0.3" d="M223.615 181.141H239.925L231.774 173.813L223.615 181.141Z" fill="black"/>
<path d="M250.942 181.125H214.495V187.126H250.942V181.125Z" fill="#99A1FF"/>
<path opacity="0.3" d="M250.942 181.125H214.495V187.126H250.942V181.125Z" fill="black"/>
<path d="M297.91 194.283H261.447V204.075H297.91V194.283Z" fill="#99A1FF"/>
<path d="M250.958 194.283H214.495V204.075H250.958V194.283Z" fill="#DBDBDB"/>
<path d="M215.04 237.314H214.503V239.818H213.502V238.542H211.725V239.818H210.724V237.314H210.188L212.614 234.768L215.04 237.314Z" fill="#C7C7C7"/>
<path d="M301.833 234.776H295.988V235.622H301.833V234.776Z" fill="#C7C7C7"/>
<path d="M301.833 236.866H295.988V237.712H301.833V236.866Z" fill="#C7C7C7"/>
<path d="M301.833 238.964H295.988V239.81H301.833V238.964Z" fill="#C7C7C7"/>
<path d="M257.732 237.378L256.066 239.184L254.409 237.378L254.697 237.102L256.066 238.582L257.435 237.102L257.732 237.378Z" fill="#C7C7C7"/>
<path d="M256.066 241.038C255.469 241.038 254.885 240.858 254.389 240.521C253.892 240.183 253.505 239.704 253.277 239.143C253.049 238.583 252.989 237.966 253.106 237.371C253.224 236.776 253.512 236.229 253.935 235.801C254.358 235.372 254.896 235.081 255.482 234.964C256.068 234.846 256.676 234.908 257.227 235.141C257.779 235.375 258.249 235.769 258.58 236.274C258.911 236.78 259.087 237.373 259.085 237.98C259.083 238.792 258.764 239.569 258.198 240.143C257.632 240.716 256.866 241.038 256.066 241.038ZM256.066 235.345C255.549 235.345 255.042 235.501 254.612 235.793C254.181 236.085 253.846 236.501 253.647 236.987C253.449 237.473 253.397 238.007 253.498 238.523C253.6 239.039 253.849 239.513 254.215 239.885C254.581 240.257 255.048 240.51 255.556 240.613C256.063 240.715 256.59 240.663 257.068 240.461C257.547 240.26 257.956 239.919 258.243 239.482C258.531 239.044 258.685 238.53 258.685 238.004C258.688 237.653 258.622 237.305 258.492 236.979C258.362 236.654 258.17 236.358 257.926 236.108C257.683 235.859 257.393 235.66 257.074 235.525C256.755 235.39 256.412 235.321 256.066 235.321V235.345Z" fill="#C7C7C7"/>
<path d="M229.556 216.811C233.959 216.648 238.363 216.567 242.759 216.502C247.155 216.437 251.566 216.445 255.97 216.404C260.374 216.364 264.777 216.404 269.173 216.502L275.779 216.616C277.981 216.681 280.183 216.722 282.376 216.811C280.183 216.909 277.981 216.941 275.779 217.014L269.173 217.128C264.769 217.193 260.366 217.185 255.97 217.218C251.574 217.25 247.163 217.218 242.759 217.128C238.355 217.039 233.959 216.965 229.556 216.811Z" fill="#263238"/>
<path d="M237.074 221.324C240.221 221.161 243.376 221.08 246.522 221.015C249.669 220.95 252.824 220.958 255.97 220.918C259.117 220.877 262.264 220.918 265.418 221.015L270.134 221.129C271.736 221.194 273.289 221.235 274.858 221.324C273.257 221.422 271.712 221.462 270.134 221.527L265.418 221.641C262.264 221.706 259.117 221.698 255.97 221.731C252.824 221.763 249.669 221.731 246.522 221.641C243.376 221.552 240.221 221.495 237.074 221.324Z" fill="#263238"/>
<path d="M297.597 151.09H214.639V70.812H297.597V151.09ZM215.44 150.277H296.797V71.6253H215.44V150.277Z" fill="#C7C7C7"/>
<path d="M215.297 70.9099L214.745 71.499L296.911 150.92L297.463 150.331L215.297 70.9099Z" fill="#C7C7C7"/>
<path d="M296.915 70.9138L214.75 150.334L215.301 150.924L297.467 71.5029L296.915 70.9138Z" fill="#C7C7C7"/>
<path d="M309.119 15.8267H204.487C203.084 15.8405 201.698 16.1348 200.407 16.6928C199.116 17.2508 197.947 18.0616 196.964 19.0789C195.982 20.0961 195.207 21.3 194.683 22.6216C194.159 23.9432 193.896 25.3567 193.91 26.7814V245.552C193.884 248.428 194.984 251.196 196.967 253.249C198.951 255.302 201.655 256.471 204.487 256.498H309.119C311.953 256.473 314.66 255.305 316.647 253.252C318.633 251.2 319.736 248.43 319.712 245.552V26.7814C319.725 25.3556 319.461 23.9413 318.935 22.6191C318.41 21.2969 317.633 20.0928 316.65 19.0755C315.666 18.0583 314.495 17.2478 313.203 16.6903C311.91 16.1329 310.523 15.8394 309.119 15.8267ZM313.123 238.785C313.123 244.543 308.879 249.203 303.643 249.203H210.011C204.759 249.203 200.515 244.543 200.515 238.785V35.0687C200.515 23.3413 204.759 22.772 210.011 22.772H228.763C229.852 22.772 230.741 24.0244 230.741 25.5859V26.2609C230.741 29.9125 232.711 29.9207 235.121 29.9207H278.485C280.887 29.9207 282.881 29.9207 282.881 26.2609V25.5859C282.881 24.0244 283.754 22.772 284.867 22.772H303.611C308.847 22.772 313.091 24.3254 313.091 35.0687L313.123 238.785Z" fill="#263238"/>
<path d="M200.283 74.2359C186.447 82.1897 161.266 106.385 163.116 113.11C166.839 126.676 188.105 144.015 192.556 147.666C195.143 149.805 205.752 125.814 203.318 123.162C200.467 120.08 188.361 111.671 188.313 110.02C188.313 108.767 198.361 95.3159 205.8 83.8731C214.423 70.5761 206.881 70.446 200.283 74.2359Z" fill="#EB9481"/>
<path d="M189.105 143.721C191.019 146.063 200.715 156.034 204.022 158.197C207.329 160.361 217.305 165.867 219.235 163.467C221.165 161.068 218.322 159.206 218.322 159.206C218.322 159.206 222.902 160.832 224.584 158.254C226.265 155.676 221.829 152.927 221.829 152.927C221.829 152.927 226.633 154.269 228.139 151.561C229.644 148.853 224.72 146.852 224.72 146.852C224.72 146.852 229.067 148.292 229.372 145.535C229.74 142.208 221.429 140.468 217.946 137.809C217.145 137.207 202.797 124.39 202.797 124.39L189.105 143.721Z" fill="#EB9481"/>
<path d="M225.096 147.023C218.987 145.73 216.537 144.095 212.117 139.752C212.029 139.671 211.885 139.752 211.965 139.874C215.912 144.526 218.698 147.031 225.048 147.324C225.36 147.348 225.416 147.096 225.096 147.023Z" fill="#263238"/>
<path d="M222.269 153.018C216.04 151.115 213.366 149.358 208.409 145.161C208.337 145.105 208.233 145.218 208.297 145.283C212.821 149.813 215.656 152.245 222.125 153.319C222.421 153.367 222.557 153.107 222.269 153.018Z" fill="#263238"/>
<path d="M218.042 158.986C212.141 156.693 209.122 154.92 204.831 150.203C204.809 150.186 204.783 150.176 204.756 150.176C204.729 150.176 204.703 150.185 204.681 150.202C204.66 150.219 204.645 150.243 204.639 150.27C204.632 150.296 204.635 150.325 204.646 150.349C208.57 155.579 212.317 157.848 217.954 159.157C218.338 159.222 218.41 159.125 218.042 158.986Z" fill="#263238"/>
<path d="M199.987 121.568C199.987 121.568 207.801 121.722 211.196 122.56C214.591 123.398 226.225 131.286 224.696 133.946C222.71 137.362 215.127 134.149 211.613 132.083C211.613 132.083 207.033 139.989 201.1 138.882C195.167 137.776 199.987 121.568 199.987 121.568Z" fill="#EB9481"/>
<path d="M223.879 134.686C219.875 136.475 215.416 133.458 211.869 131.718C211.818 131.69 211.761 131.674 211.703 131.673C211.645 131.672 211.587 131.686 211.536 131.712C211.484 131.738 211.439 131.777 211.405 131.825C211.371 131.872 211.349 131.928 211.34 131.986C209.202 135.174 205.279 139.029 201.276 139.07C201.256 139.076 201.238 139.088 201.226 139.105C201.214 139.122 201.207 139.142 201.207 139.163C201.207 139.184 201.214 139.205 201.226 139.222C201.238 139.238 201.256 139.251 201.276 139.257C205.575 139.802 209.731 136.329 211.853 132.694C215.472 134.54 220.052 137.37 223.911 134.727L223.879 134.686Z" fill="#263238"/>
<path d="M202.693 120.039L186.471 144.641C186.471 144.641 160.706 120.397 162.131 111.427C163.556 102.456 186.327 81.3355 198.754 74.3007C211.18 67.2659 212.245 74.4633 206.713 83.9217C201.18 93.3801 189.058 110.06 189.298 110.524C189.538 110.987 202.693 120.039 202.693 120.039Z" fill="#455A64"/>
<path d="M190.635 133.344C192.116 131.937 193.557 130.498 195.007 129.058C195.695 128.367 196.4 127.676 197.072 126.96C197.745 126.244 198.594 125.464 199.266 124.642C199.314 124.585 199.266 124.512 199.186 124.561C198.345 125.187 197.585 125.952 196.784 126.635C195.983 127.318 195.327 127.944 194.606 128.603C193.101 129.985 191.596 131.36 190.122 132.775C187.176 135.605 184.318 138.517 181.483 141.469C181.419 141.542 181.483 141.648 181.587 141.583C184.646 138.891 187.672 136.166 190.635 133.344Z" fill="#263238"/>
<path d="M206.712 83.9218C201.171 93.3802 189.057 110.06 189.297 110.524C189.537 110.988 202.693 120.039 202.693 120.039L186.471 144.641C186.471 144.641 166.222 125.586 162.619 115.013L207.457 71.5601C211.172 72.2025 210.435 77.5539 206.712 83.9218Z" fill="#37474F"/>
<path d="M210.235 153.695L291.995 145.406L284.26 66.698L202.501 74.987L210.235 153.695Z" fill="#99A1FF"/>
<path opacity="0.2" d="M214.527 89.9156C214.397 91.2774 214.701 92.6455 215.396 93.8179C216.09 94.9902 217.137 95.9047 218.382 96.4261C219.628 96.9476 221.005 97.0483 222.311 96.7135C223.617 96.3787 224.782 95.6261 225.635 94.5669C226.487 93.5077 226.982 92.198 227.045 90.8314C227.109 89.4648 226.738 88.1137 225.987 86.9778C225.236 85.8418 224.146 84.9813 222.876 84.5232C221.607 84.0652 220.227 84.034 218.939 84.4342C217.752 84.8028 216.7 85.5202 215.915 86.4958C215.13 87.4714 214.647 88.6614 214.527 89.9156Z" fill="black"/>
<path opacity="0.2" d="M241.262 126.822L289.695 121.918L262.768 96.7876L241.262 126.822Z" fill="black"/>
<path d="M222.678 128.733L262.664 124.683L240.909 108.743L222.678 128.733Z" fill="#99A1FF"/>
<path opacity="0.3" d="M222.678 128.733L262.664 124.683L240.909 108.743L222.678 128.733Z" fill="black"/>
<path d="M290.677 131.891L208.918 140.18L210.242 153.654L292.001 145.365L290.677 131.891Z" fill="#99A1FF"/>
<path opacity="0.3" d="M289.703 121.92L207.943 130.209L210.246 153.645L292.006 145.356L289.703 121.92Z" fill="black"/>
<path d="M166.919 290.094C166.919 290.094 166.062 329.042 166.062 329.074C166.27 336.264 166.582 342.567 167.039 345.82C167.035 345.836 167.035 345.852 167.039 345.868C167.066 346.64 167.269 347.394 167.631 348.072C167.631 348.072 167.631 348.113 167.631 348.121C169.785 349.504 226.441 349.463 228.411 348.788C230.38 348.113 228.643 342.339 226.441 340.558C224.239 338.777 202.541 328.944 202.541 328.944L202.141 290.021L166.919 290.094Z" fill="#EB9481"/>
<path d="M166.23 321.348C166.23 321.348 166.062 329.042 166.062 329.075C166.27 336.264 166.582 342.567 167.039 345.82C167.035 345.836 167.035 345.853 167.039 345.869C167.153 346.624 167.352 347.363 167.631 348.073C167.631 348.073 167.631 348.113 167.631 348.121C169.785 349.504 226.441 349.463 228.411 348.788C230.38 348.113 228.643 342.339 226.441 340.558C224.239 338.777 202.541 328.944 202.541 328.944L202.373 321.104L166.23 321.348Z" fill="white"/>
<path d="M206.056 328.871C202.269 328.343 197.705 329.148 194.966 332.002C194.862 332.116 195.014 332.271 195.134 332.222C198.666 330.872 202.33 329.91 206.064 329.351C206.119 329.34 206.168 329.309 206.203 329.265C206.239 329.22 206.257 329.165 206.256 329.108C206.255 329.051 206.235 328.996 206.198 328.953C206.162 328.909 206.111 328.881 206.056 328.871Z" fill="#263238"/>
<path d="M208.842 330.392C205.055 329.863 200.491 330.677 197.753 333.531C197.649 333.645 197.801 333.791 197.921 333.751C201.453 332.401 205.117 331.439 208.85 330.88C208.914 330.879 208.975 330.852 209.019 330.806C209.063 330.759 209.088 330.697 209.087 330.632C209.085 330.567 209.059 330.506 209.013 330.461C208.968 330.416 208.906 330.391 208.842 330.392Z" fill="#263238"/>
<path d="M211.628 331.921C207.841 331.392 203.277 332.205 200.539 335.06C200.435 335.166 200.595 335.32 200.715 335.271C204.245 333.925 207.906 332.962 211.636 332.401C211.691 332.389 211.741 332.359 211.776 332.314C211.811 332.27 211.83 332.214 211.829 332.157C211.828 332.1 211.808 332.045 211.771 332.002C211.734 331.959 211.684 331.93 211.628 331.921Z" fill="#263238"/>
<path d="M228.458 348.788C226.481 349.472 169.833 349.512 167.679 348.122C166.878 347.601 166.366 339.216 166.078 329.075C166.078 328.969 166.078 328.863 166.078 328.758L202.629 328.318V328.945C202.629 328.945 224.319 338.777 226.529 340.566C228.739 342.355 230.444 348.122 228.458 348.788Z" fill="#37474F"/>
<path d="M166.046 328.749V329.075C166.35 339.216 166.847 347.609 167.647 348.122C168.624 348.748 180.906 349.089 194.182 349.211C210.067 349.35 227.354 349.163 228.435 348.797C230.412 348.122 228.651 342.339 226.457 340.558C224.263 338.777 202.557 328.945 202.557 328.945V328.318L190.37 328.465L166.046 328.749Z" fill="#99A1FF"/>
<path d="M227.818 346.56C218.274 346.332 179.729 346.308 170.273 346.82C170.201 346.82 170.201 346.877 170.273 346.877C179.737 347.316 218.274 347.023 227.818 346.723C228.018 346.714 228.018 346.568 227.818 346.56Z" fill="#263238"/>
<path opacity="0.1" d="M190.418 328.465C191.475 334.654 193.069 343.779 194.214 349.211C210.099 349.35 227.386 349.163 228.467 348.797C230.444 348.122 228.683 342.339 226.489 340.558C224.295 338.777 202.589 328.945 202.589 328.945V328.318L190.418 328.465Z" fill="black"/>
<path d="M163.324 328.603L204.31 329.001C204.31 329.001 205.343 256.401 205.519 233.8C205.72 207.987 204.278 130.514 204.278 130.514H173.644C173.644 130.514 165.413 147.593 170.113 166.786L171.419 235.914L163.324 328.603Z" fill="#263238"/>
<path d="M166.366 321.316C167.447 321.168 168.535 321.081 169.625 321.056C170.842 320.966 172.027 320.877 173.26 320.82C175.59 320.722 177.92 320.681 180.258 320.673C184.958 320.673 189.666 320.673 194.374 320.836C197.048 320.925 199.722 321.031 202.381 321.186C202.399 321.191 202.414 321.203 202.425 321.218C202.437 321.233 202.443 321.252 202.443 321.271C202.443 321.29 202.437 321.309 202.425 321.324C202.414 321.339 202.399 321.351 202.381 321.356C197.721 321.527 193.053 321.6 188.385 321.698C183.717 321.796 179.049 321.877 174.397 321.788C173.06 321.788 171.723 321.747 170.394 321.674C169.065 321.6 167.687 321.674 166.39 321.478C166.302 321.462 166.27 321.332 166.366 321.316Z" fill="#37474F"/>
<path d="M200.595 283.092C201.075 271.885 200.939 256.661 201.236 245.446C201.844 223.021 202.004 200.588 201.716 178.147C201.556 165.558 201.228 152.936 200.859 140.395C200.859 140.249 201.067 140.257 201.076 140.395C202.252 162.915 202.677 185.483 202.725 208.035C202.773 230.587 202.781 256.929 201.684 279.335C201.075 291.916 201.124 305.311 199.955 317.851C199.955 317.957 199.778 317.957 199.786 317.851C200.243 306.539 200.075 294.413 200.595 283.092Z" fill="#37474F"/>
<path d="M210.139 290.793C210.139 290.793 210.451 328.424 210.451 328.456C210.451 335.654 210.62 341.956 210.996 345.218C210.992 345.234 210.992 345.25 210.996 345.266C211.004 346.04 211.185 346.802 211.524 347.495V347.535C213.638 348.983 270.278 350.471 272.272 349.853C274.265 349.235 272.672 343.412 270.518 341.574C268.364 339.736 246.922 329.31 246.922 329.31L246.258 291.696L210.139 290.793Z" fill="#EB9481"/>
<path d="M210.387 320.722C210.387 320.722 210.451 328.424 210.451 328.456C210.451 335.654 210.619 341.957 210.996 345.218C210.992 345.234 210.992 345.251 210.996 345.267C211.087 346.028 211.264 346.775 211.524 347.495V347.536C213.638 348.983 270.278 350.472 272.272 349.854C274.265 349.236 272.672 343.412 270.518 341.574C268.364 339.736 246.922 329.31 246.922 329.31L246.962 321.47L210.387 320.722Z" fill="white"/>
<path d="M250.445 329.334C246.666 328.7 242.086 329.383 239.276 332.165C239.164 332.27 239.316 332.433 239.436 332.384C243.003 331.134 246.691 330.273 250.437 329.814C250.493 329.805 250.543 329.776 250.58 329.733C250.617 329.69 250.637 329.635 250.638 329.578C250.639 329.521 250.62 329.465 250.585 329.421C250.55 329.376 250.501 329.346 250.445 329.334Z" fill="#263238"/>
<path d="M253.192 330.937C249.421 330.303 244.833 330.986 242.023 333.767C241.91 333.873 242.063 334.027 242.183 333.987C245.75 332.737 249.438 331.875 253.184 331.417C253.239 331.407 253.29 331.379 253.326 331.335C253.363 331.292 253.384 331.237 253.385 331.18C253.386 331.123 253.367 331.068 253.332 331.023C253.296 330.979 253.247 330.948 253.192 330.937Z" fill="#263238"/>
<path d="M255.938 332.531C252.167 331.905 247.579 332.588 244.769 335.369C244.657 335.475 244.809 335.629 244.929 335.589C248.496 334.338 252.184 333.477 255.93 333.019C255.994 333.02 256.055 332.995 256.101 332.95C256.147 332.905 256.173 332.844 256.174 332.779C256.175 332.714 256.151 332.652 256.107 332.605C256.062 332.559 256.002 332.532 255.938 332.531Z" fill="#263238"/>
<path d="M272.32 349.854C270.326 350.48 213.694 348.983 211.572 347.536C210.772 346.999 210.491 338.59 210.459 328.456V328.139L247.002 328.684V329.31C247.002 329.31 268.429 339.736 270.598 341.574C272.768 343.412 274.314 349.235 272.32 349.854Z" fill="#99A1FF"/>
<path d="M271.735 347.609C262.191 347.113 223.695 346.056 214.207 346.308C214.126 346.308 214.126 346.365 214.207 346.365C223.655 347.064 262.183 347.804 271.735 347.764C271.927 347.764 271.935 347.617 271.735 347.609Z" fill="#263238"/>
<path d="M191.42 170.381C191.42 170.381 208.234 224.203 208.53 234.101C208.794 242.534 207.729 329.075 207.729 329.075L250.293 329.335C250.293 329.335 246.698 241.079 246.034 232.287C244.785 215.851 230.613 170.731 220.476 130.539H174.589C174.589 130.539 174.99 151.594 184.414 166.811C184.414 166.811 188.681 168.819 191.42 170.381Z" fill="#263238"/>
<path d="M209.987 321.104C214.903 320.958 220.004 320.812 224.928 320.934C229.852 321.056 234.688 321.137 239.564 321.43C242.327 321.601 245.081 321.69 247.835 321.966C247.851 321.972 247.865 321.982 247.875 321.996C247.885 322.01 247.89 322.027 247.89 322.044C247.89 322.061 247.885 322.078 247.875 322.091C247.865 322.105 247.851 322.116 247.835 322.121C242.919 322.414 237.987 322.349 233.071 322.308C228.155 322.267 223.302 322.21 218.426 321.983C215.664 321.853 212.91 321.714 210.147 321.519C209.851 321.495 209.691 321.113 209.987 321.104Z" fill="#37474F"/>
<path d="M219.299 155.896C220.812 161.044 222.093 166.265 223.454 171.454C224.816 176.643 226.185 181.913 227.538 187.15C230.164 197.267 232.758 207.417 234.744 217.697C236.757 228.016 237.896 238.491 238.147 249.008C238.379 259.719 238.147 270.454 238.083 281.165C238.019 291.875 237.923 302.716 237.739 313.492C237.739 314.834 237.691 316.176 237.643 317.51C237.636 317.532 237.623 317.551 237.605 317.565C237.587 317.579 237.565 317.586 237.542 317.586C237.52 317.586 237.498 317.579 237.48 317.565C237.462 317.551 237.449 317.532 237.442 317.51C237.162 306.791 237.314 296.056 237.346 285.329C237.378 274.602 237.522 263.883 237.426 253.164C237.389 242.533 236.484 231.924 234.72 221.446C232.943 211.126 230.444 200.96 227.85 190.826C226.369 185.052 224.872 179.278 223.398 173.495C221.925 167.713 220.3 161.841 219.011 155.969C219.015 155.937 219.029 155.907 219.05 155.883C219.072 155.859 219.1 155.842 219.131 155.834C219.162 155.826 219.194 155.828 219.224 155.839C219.254 155.85 219.28 155.87 219.299 155.896Z" fill="#37474F"/>
<path d="M201.94 171.422C199.822 171.406 197.709 171.21 195.623 170.836C193.554 170.367 191.509 169.792 189.498 169.112C187.518 168.655 185.513 168.324 183.493 168.12C181.457 167.818 179.474 167.218 177.608 166.339C177.52 166.29 177.448 166.428 177.536 166.469C179.334 167.453 181.208 168.285 183.14 168.958C185.158 169.6 187.272 169.69 189.322 170.202C191.391 170.823 193.495 171.314 195.623 171.674C197.721 171.933 199.845 171.895 201.932 171.56C202.044 171.552 202.02 171.422 201.94 171.422Z" fill="#37474F"/>
<path d="M204.599 214.24C204.19 212.614 203.798 211.044 203.39 209.458C202.525 206.246 201.652 203.025 200.691 199.837C198.794 193.51 197 187.142 194.99 180.847C193.854 177.277 192.829 173.658 191.492 170.153C191.484 170.137 191.471 170.125 191.456 170.118C191.44 170.112 191.423 170.11 191.407 170.115C191.39 170.12 191.376 170.131 191.367 170.145C191.358 170.159 191.354 170.176 191.355 170.193C192.028 173.447 192.957 176.659 193.83 179.88C194.702 183.1 195.599 186.296 196.512 189.492C198.321 195.852 200.099 202.22 202.117 208.531C202.65 210.293 203.227 212.055 203.846 213.817C204.455 215.607 204.943 217.453 205.68 219.201C205.686 219.221 205.7 219.237 205.718 219.246C205.736 219.255 205.757 219.257 205.776 219.25C205.795 219.244 205.811 219.23 205.82 219.211C205.829 219.193 205.83 219.172 205.824 219.153C205.543 217.493 205.039 215.867 204.599 214.24Z" fill="#37474F"/>
<path d="M217.866 83.2141C214.775 83.515 209.659 77.6839 208.138 73.6338C208.042 73.3573 208.794 70.6897 209.563 67.4041C210.027 65.4116 210.492 63.1832 210.772 61.1094L223.11 66.0459C222.032 68.5292 221.257 71.1377 220.804 73.8127C220.777 74.0994 220.777 74.3881 220.804 74.6748C220.808 74.7208 220.808 74.767 220.804 74.813C220.812 76.464 220.852 82.9213 217.866 83.2141Z" fill="#EB9481"/>
<path d="M220.772 74.642C220.776 74.6934 220.776 74.7451 220.772 74.7965C220.329 74.7919 219.888 74.7539 219.451 74.6827C211.973 73.3245 211.164 64.5005 211.132 61.2393L223.142 66.0213C222.064 68.5057 221.287 71.1136 220.828 73.7881C220.79 74.071 220.771 74.3564 220.772 74.642Z" fill="#263238"/>
<path d="M206.424 48.1132C205.791 52.9277 210.323 65.753 214.006 68.1685C219.355 71.6655 227.025 70.7953 229.684 64.5169C232.254 58.4336 226.056 41.8184 222.037 39.7446C216.12 36.6785 207.353 41.0133 206.424 48.1132Z" fill="#EB9481"/>
<path d="M220.917 53.8877C220.917 53.8877 220.861 53.9528 220.877 53.9853C221.189 54.8474 221.413 55.8883 220.732 56.4251C220.732 56.4251 220.732 56.482 220.732 56.4739C221.653 56.0266 221.349 54.6522 220.917 53.8877Z" fill="#263238"/>
<path d="M219.811 53.2452C218.402 53.6112 219.227 56.4495 220.54 56.1079C221.853 55.7664 221.028 52.9362 219.811 53.2452Z" fill="#263238"/>
<path d="M225.777 52.4155C225.777 52.4155 225.857 52.4155 225.865 52.4725C226.097 53.3589 226.505 54.3349 227.378 54.3918V54.4487C226.385 54.5951 225.857 53.2939 225.777 52.4155Z" fill="#263238"/>
<path d="M226.289 51.2607C227.65 50.732 228.586 53.546 227.321 54.0339C226.056 54.5219 225.144 51.6998 226.289 51.2607Z" fill="#263238"/>
<path d="M218.362 52.2771C218.714 52.0656 219.011 51.8054 219.339 51.5614C219.667 51.3174 220.028 51.0978 220.188 50.6424C220.22 50.5081 220.208 50.3666 220.153 50.2401C220.098 50.1135 220.003 50.0091 219.883 49.943C219.627 49.849 219.351 49.8266 219.083 49.8781C218.816 49.9296 218.567 50.0531 218.362 50.2358C217.892 50.5365 217.551 51.0074 217.409 51.5533C217.384 51.6775 217.394 51.8065 217.438 51.9252C217.482 52.0439 217.559 52.1473 217.659 52.2233C217.759 52.2993 217.878 52.3447 218.003 52.3542C218.127 52.3638 218.252 52.337 218.362 52.2771Z" fill="#263238"/>
<path d="M226.954 49.5042C226.554 49.5285 226.153 49.5285 225.753 49.5042C225.334 49.576 224.904 49.5074 224.528 49.309C224.421 49.2235 224.345 49.1046 224.312 48.9707C224.278 48.8369 224.29 48.6956 224.344 48.5689C224.495 48.3385 224.701 48.1511 224.944 48.0244C225.186 47.8977 225.456 47.836 225.729 47.8451C226.283 47.7946 226.836 47.9539 227.282 48.2924C227.393 48.3713 227.478 48.4832 227.524 48.6128C227.57 48.7423 227.575 48.8832 227.539 49.016C227.503 49.1488 227.427 49.267 227.323 49.3544C227.218 49.4418 227.089 49.4941 226.954 49.5042Z" fill="#263238"/>
<path d="M222.47 59.255C222.791 59.537 223.165 59.7484 223.57 59.8758C223.976 60.0032 224.402 60.0438 224.824 59.9951C225.195 59.9588 225.559 59.8684 225.905 59.7267C225.971 59.7046 226.035 59.6774 226.097 59.6454L226.281 59.5559C226.324 59.5322 226.359 59.4947 226.379 59.4492C226.399 59.4036 226.404 59.3525 226.393 59.3038C226.398 59.2742 226.398 59.244 226.393 59.2144V59.1412C226.209 58.458 225.849 57.4414 225.849 57.4414C226.129 57.4902 227.538 57.6854 227.41 57.3438C226.426 54.3105 225.141 51.3866 223.575 48.6174C223.562 48.6033 223.545 48.5937 223.527 48.59C223.508 48.5864 223.489 48.5888 223.472 48.597C223.455 48.6052 223.441 48.6187 223.432 48.6355C223.423 48.6524 223.42 48.6717 223.423 48.6906C224.295 51.4964 225.657 54.1314 226.577 56.9372C226.075 56.8684 225.566 56.8684 225.064 56.9372C224.976 56.9941 225.801 58.8809 225.865 59.1981C225.333 59.4174 224.764 59.5261 224.19 59.5178C223.617 59.5094 223.051 59.3841 222.526 59.1493C222.446 59.1168 222.398 59.19 222.47 59.255Z" fill="#263238"/>
<path d="M225.416 59.4993C225.193 60.0956 224.82 60.6226 224.335 61.0283C224.065 61.2371 223.738 61.3589 223.399 61.378C222.654 61.378 222.446 60.7599 222.414 60.1662C222.397 59.853 222.418 59.5388 222.478 59.231C223.403 59.639 224.434 59.7331 225.416 59.4993Z" fill="#263238"/>
<path d="M224.327 61.0284C224.056 61.2373 223.73 61.3591 223.391 61.3781C222.646 61.3781 222.438 60.76 222.406 60.1663C222.775 60.0686 223.166 60.1006 223.515 60.2571C223.863 60.4137 224.15 60.6855 224.327 61.0284Z" fill="#FF97B8"/>
<path d="M210.027 59.5883C212.173 58.5392 210.388 52.7405 210.388 52.7405C210.388 52.7405 212.846 50.748 212.061 45.2015C212.061 45.2015 215.624 49.7477 224.6 45.5349C224.354 43.7605 223.564 42.1098 222.342 40.818C223.794 42.1462 225.133 43.5962 226.345 45.1527C226.345 45.1527 226.065 36.532 218.555 35.9302C215.56 35.6862 211.629 37.2314 206.504 42.29C206.504 42.29 204.158 38.9718 203.614 39.6875C203.069 40.4032 205.519 43.4204 205.519 43.4204C205.519 43.4204 202.573 43.4204 202.317 44.1768C202.061 44.9331 204.879 44.6322 204.879 44.6322C203.823 45.4611 203.093 46.6454 202.82 47.9722C202.547 49.2991 202.749 50.6813 203.39 51.8703C205.399 56.075 208.962 60.1088 210.027 59.5883Z" fill="#263238"/>
<path d="M205.576 44.3233C204.382 44.6711 203.356 45.4503 202.689 46.5139C202.022 47.5776 201.762 48.8522 201.957 50.0976C202.266 51.5304 202.896 52.8716 203.798 54.0175C204.724 55.2371 205.8 56.3304 207.001 57.2706C207.065 57.3275 207.137 57.2137 207.073 57.1649C206.002 56.2712 205.073 55.2151 204.319 54.0338C203.538 52.948 202.932 51.7428 202.525 50.4635C202.207 49.2603 202.346 47.9798 202.914 46.8758C203.482 45.7717 204.438 44.9246 205.592 44.5022C205.696 44.429 205.656 44.2989 205.576 44.3233Z" fill="#263238"/>
<path d="M212.782 36.3697C211.314 37.2724 209.968 38.366 208.778 39.6228C207.585 40.7518 206.591 42.0805 205.84 43.5509C205.84 43.6241 205.904 43.6973 205.952 43.6241C207.823 41.0863 210.135 38.9172 212.774 37.2236C215.176 35.5971 218.274 34.5724 220.973 36.085C221.021 36.085 221.061 36.0444 221.013 36.02C218.475 34.2877 215.248 34.9302 212.782 36.3697Z" fill="#263238"/>
<path d="M210.956 58.4255C210.956 58.4255 207.241 54.717 205.535 56.1402C203.83 57.5634 207.137 63.3295 209.539 63.7524C209.841 63.8278 210.156 63.8403 210.463 63.7892C210.771 63.7381 211.065 63.6245 211.328 63.4551C211.591 63.2858 211.818 63.0642 211.995 62.8036C212.172 62.5431 212.295 62.2489 212.357 61.9388L210.956 58.4255Z" fill="#EB9481"/>
<path d="M206.528 57.775C206.528 57.775 206.528 57.8238 206.528 57.8319C208.218 58.1816 209.315 59.5073 210.171 60.9224C210.05 60.781 209.901 60.6677 209.733 60.59C209.565 60.5123 209.383 60.4721 209.199 60.4721C209.014 60.4721 208.832 60.5123 208.664 60.59C208.496 60.6677 208.347 60.781 208.226 60.9224C208.215 60.9299 208.208 60.9414 208.206 60.9544C208.203 60.9674 208.206 60.9807 208.214 60.9915C208.221 61.0023 208.233 61.0096 208.245 61.0119C208.258 61.0142 208.271 61.0113 208.282 61.0037C208.537 60.8681 208.828 60.8149 209.114 60.8512C209.4 60.8876 209.668 61.0117 209.883 61.207C210.246 61.5439 210.571 61.9203 210.852 62.3293C210.948 62.4595 211.188 62.3293 211.108 62.1829C210.788 60.1172 208.714 57.5636 206.528 57.775Z" fill="#263238"/>
<path d="M206.977 72.2027L207.641 67.1279L221.429 75.1956L221.829 80.1728L206.977 72.2027Z" fill="#EBEBEB"/>
<path d="M167.207 140.167C167.311 140.346 226.297 151.309 226.946 150.813C227.85 150.114 229.916 91.314 220.804 77.9682C218.562 74.7151 209.883 70.0469 206.68 71.5678C198.377 75.5284 192.38 85.9708 188.601 91.9972C185.799 96.4702 181.979 104.269 178.344 112.329C172.339 125.593 166.839 139.517 167.207 140.167Z" fill="#455A64"/>
<path d="M213.19 88.4677C217.562 103.595 225.744 126.952 235.176 131.4C239.796 133.58 264.553 128.05 272.008 126.236C275.21 125.423 265.41 103.391 261.927 103.367C258.444 103.342 243.616 107.767 241.91 106.62C239.716 105.189 232.158 92.7943 223.663 82.0591C213.686 69.4045 209.635 76.1466 213.19 88.4677Z" fill="#EB9481"/>
<path d="M290.92 95.7873C291.792 97.4138 289.39 99.1705 289.39 99.1705C290.617 99.5897 291.66 100.433 292.337 101.553C293.442 103.578 290.799 106.222 290.799 106.222C291.98 106.926 292.926 107.974 293.514 109.231C294.378 111.28 292.081 114.338 292.081 114.338C292.816 115.592 293.081 117.074 292.825 118.51C292.024 122.324 286.468 124.317 282.969 125.618C279.47 126.919 268.324 127.293 266.211 127.586L257.771 104.815C257.771 104.815 271.839 94.421 276.187 93.4857C279.862 92.7294 289.046 92.2902 290.92 95.7873Z" fill="#EB9481"/>
<path d="M289.31 99.1377C285.227 99.032 281.135 99.951 277.188 100.821C277.1 100.821 277.132 100.984 277.188 100.959C281.103 100.016 285.355 100.146 289.294 99.3329C289.32 99.3351 289.345 99.3269 289.365 99.3101C289.384 99.2933 289.396 99.2693 289.398 99.2435C289.4 99.2176 289.392 99.1919 289.376 99.1721C289.359 99.1522 289.336 99.1399 289.31 99.1377Z" fill="#263238"/>
<path d="M290.615 105.986C289.687 106.05 288.771 106.241 287.893 106.555C286.943 106.821 285.998 107.092 285.059 107.368C283.169 107.965 281.301 108.613 279.454 109.312C279.374 109.312 279.398 109.475 279.454 109.45C281.327 108.849 283.214 108.29 285.115 107.775C286.067 107.515 287.02 107.263 287.981 107.027C288.896 106.854 289.79 106.581 290.647 106.214C290.662 106.198 290.674 106.178 290.68 106.157C290.687 106.136 290.689 106.114 290.686 106.092C290.683 106.07 290.675 106.049 290.662 106.031C290.65 106.012 290.634 105.997 290.615 105.986Z" fill="#263238"/>
<path d="M292 114.395C291.169 114.467 290.357 114.685 289.598 115.037L287.036 115.9C285.331 116.461 283.617 117.022 281.888 117.526C281.8 117.526 281.832 117.689 281.888 117.664C283.649 117.16 285.411 116.688 287.164 116.168C288.029 115.916 288.894 115.656 289.75 115.355C290.556 115.21 291.329 114.918 292.032 114.493C292.032 114.493 292.04 114.395 292 114.395Z" fill="#263238"/>
<path d="M256.394 103.294L264.649 131.629C264.649 131.629 236.137 135.467 230.901 130.604C222.005 122.349 214.279 98.5934 211.981 86.1097C209.683 73.6259 215.648 70.934 223.535 81.0836C231.421 91.2333 241.462 105.482 242.086 105.986C242.711 106.49 256.394 103.294 256.394 103.294Z" fill="#455A64"/>
<path d="M254.713 118.25C254.153 116.274 253.544 114.314 252.935 112.354C252.639 111.41 252.359 110.459 252.039 109.532C251.718 108.605 251.414 107.466 250.998 106.49C250.998 106.475 250.992 106.46 250.981 106.45C250.971 106.439 250.957 106.433 250.942 106.433C250.927 106.433 250.913 106.439 250.902 106.45C250.892 106.46 250.886 106.475 250.886 106.49C251.054 107.539 251.382 108.58 251.622 109.613C251.863 110.646 252.103 111.532 252.359 112.484C252.879 114.468 253.408 116.461 253.96 118.429C255.105 122.39 256.362 126.293 257.659 130.197C257.659 130.216 257.667 130.235 257.681 130.249C257.694 130.262 257.712 130.27 257.732 130.27C257.751 130.27 257.769 130.262 257.783 130.249C257.796 130.235 257.804 130.216 257.804 130.197C256.859 126.188 255.842 122.211 254.713 118.25Z" fill="#263238"/>
<path d="M227.874 126.822C225.937 124.382 219.748 112.256 215.864 99.2191C214.815 95.7139 213.798 92.2005 212.742 88.6953H212.686C213.046 90.8668 213.486 93.0138 214.039 95.1527C213.983 95.0063 213.927 94.8681 213.863 94.7298C213.462 93.8759 213.062 93.0382 212.621 92.2005C212.621 92.1517 212.517 92.2005 212.533 92.2005C212.886 93.0951 213.222 93.9897 213.606 94.868C213.855 95.4211 214.127 95.966 214.407 96.4946C214.655 97.4217 214.887 98.3489 215.208 99.2597C223.214 124.024 227.562 126.366 227.778 126.805C227.77 126.968 227.93 126.903 227.874 126.822Z" fill="#263238"/>
<path d="M160.289 30.2615C160.634 33.6524 161.901 36.879 163.947 39.5807C165.994 42.2823 168.74 44.3526 171.879 45.5601C175.017 46.7676 178.425 47.0647 181.72 46.4183C185.015 45.7718 188.069 44.2073 190.539 41.8995L199.602 43.2495L195.07 35.2957C196.111 32.7059 196.556 29.9093 196.373 27.1184C196.189 24.3275 195.382 21.6159 194.011 19.1898C192.641 16.7636 190.744 14.6869 188.464 13.1174C186.185 11.5479 183.583 10.527 180.857 10.1325C178.131 9.73787 175.352 9.97993 172.731 10.8402C170.111 11.7005 167.718 13.1564 165.735 15.0972C163.752 17.038 162.231 19.4125 161.287 22.0402C160.343 24.6679 160.002 27.4797 160.289 30.2615Z" fill="white"/>
<path d="M165.702 15.0695C167.684 13.1092 170.072 11.6227 172.692 10.7185C176.016 9.60086 179.586 9.4748 182.979 10.3553C186.371 11.2358 189.444 13.0858 191.834 15.6862C194.223 18.2866 195.827 21.5282 196.458 25.0269C197.089 28.5255 196.718 32.1344 195.391 35.4257V35.1167L199.899 43.0868L200.227 43.6723L199.57 43.5666L190.523 42.1596L190.731 42.0946C188.214 44.4035 185.115 45.9576 181.779 46.5838C180.949 46.7384 180.109 46.8281 179.265 46.8522C178.427 46.8928 177.587 46.8765 176.751 46.8034C175.079 46.6408 173.438 46.2411 171.875 45.616C170.315 45.0148 168.846 44.1935 167.511 43.1762C166.843 42.6717 166.204 42.1286 165.598 41.5497C165.012 40.9446 164.464 40.3036 163.956 39.6303C161.248 36.0313 159.931 31.5489 160.256 27.0307C160.58 22.5125 162.524 18.2717 165.718 15.1102L165.702 15.0695ZM163.996 39.5409C164.503 40.2127 165.054 40.8485 165.646 41.4439C166.245 42.028 166.882 42.5713 167.551 43.0705C168.882 44.0856 170.356 44.8917 171.923 45.4615C173.467 46.0486 175.084 46.4127 176.727 46.5432C177.553 46.6042 178.383 46.6042 179.209 46.5432C180.032 46.5081 180.852 46.4075 181.659 46.2423C184.909 45.5772 187.911 44.0058 190.331 41.7042L190.427 41.6147H190.547L199.651 42.9241L199.322 43.4121L194.766 35.4745L194.678 35.32L194.742 35.1573C195.76 32.6136 196.196 29.8685 196.019 27.1287C195.841 24.3889 195.055 21.7256 193.718 19.3392C192.359 16.967 190.513 14.9199 188.305 13.3372C186.061 11.7739 183.498 10.7473 180.808 10.3346C178.117 9.92187 175.37 10.1338 172.772 10.9543C168.82 12.2147 165.419 14.8236 163.144 18.3391C160.869 21.8547 159.861 26.0608 160.289 30.2452C160.654 33.6326 161.937 36.8507 163.996 39.5409Z" fill="#263238"/>
<path d="M176.455 38.8417L168.72 30.8879L171.322 28.2773L175.838 32.9211L185.23 17.9731L188.305 19.9738L176.455 38.8417Z" fill="#99A1FF"/>
</svg>
