<svg width="30" height="24" viewBox="0 0 30 24" fill="none" xmlns="http://www.w3.org/2000/svg">
<path d="M28.125 23.25C28.125 23.25 30 23.25 30 21.375C30 19.5 28.125 13.875 20.625 13.875C13.125 13.875 11.25 19.5 11.25 21.375C11.25 23.25 13.125 23.25 13.125 23.25H28.125ZM13.1662 21.375L13.125 21.3675C13.1269 20.8725 13.4381 19.4363 14.55 18.1425C15.585 16.9294 17.4037 15.75 20.625 15.75C23.8444 15.75 25.6631 16.9312 26.7 18.1425C27.8119 19.4363 28.1213 20.8744 28.125 21.3675L28.11 21.3713L28.0837 21.375H13.1662ZM20.625 10.125C21.6196 10.125 22.5734 9.72991 23.2766 9.02665C23.9799 8.32339 24.375 7.36956 24.375 6.375C24.375 5.38044 23.9799 4.42661 23.2766 3.72335C22.5734 3.02009 21.6196 2.625 20.625 2.625C19.6304 2.625 18.6766 3.02009 17.9734 3.72335C17.2701 4.42661 16.875 5.38044 16.875 6.375C16.875 7.36956 17.2701 8.32339 17.9734 9.02665C18.6766 9.72991 19.6304 10.125 20.625 10.125ZM26.25 6.375C26.25 7.11369 26.1045 7.84514 25.8218 8.52759C25.5391 9.21005 25.1248 9.83015 24.6025 10.3525C24.0801 10.8748 23.4601 11.2891 22.7776 11.5718C22.0951 11.8545 21.3637 12 20.625 12C19.8863 12 19.1549 11.8545 18.4724 11.5718C17.7899 11.2891 17.1699 10.8748 16.6475 10.3525C16.1252 9.83015 15.7109 9.21005 15.4282 8.52759C15.1455 7.84514 15 7.11369 15 6.375C15 4.88316 15.5926 3.45242 16.6475 2.39752C17.7024 1.34263 19.1332 0.75 20.625 0.75C22.1168 0.75 23.5476 1.34263 24.6025 2.39752C25.6574 3.45242 26.25 4.88316 26.25 6.375ZM13.005 14.4C12.2545 14.1655 11.4816 14.0102 10.6987 13.9369C10.2588 13.894 9.81701 13.8733 9.375 13.875C1.875 13.875 0 19.5 0 21.375C0 22.625 0.625 23.25 1.875 23.25H9.78C9.50217 22.6646 9.36355 22.0229 9.375 21.375C9.375 19.4813 10.0819 17.5462 11.4188 15.93C11.8744 15.3787 12.405 14.8631 13.005 14.4ZM9.225 15.75C8.11598 17.4177 7.51658 19.3723 7.5 21.375H1.875C1.875 20.8875 2.1825 19.4438 3.3 18.1425C4.32188 16.95 6.0975 15.7875 9.225 15.7519V15.75ZM2.8125 7.3125C2.8125 5.82066 3.40513 4.38992 4.46002 3.33502C5.51492 2.28013 6.94566 1.6875 8.4375 1.6875C9.92934 1.6875 11.3601 2.28013 12.415 3.33502C13.4699 4.38992 14.0625 5.82066 14.0625 7.3125C14.0625 8.80434 13.4699 10.2351 12.415 11.29C11.3601 12.3449 9.92934 12.9375 8.4375 12.9375C6.94566 12.9375 5.51492 12.3449 4.46002 11.29C3.40513 10.2351 2.8125 8.80434 2.8125 7.3125ZM8.4375 3.5625C7.44294 3.5625 6.48911 3.95759 5.78585 4.66085C5.08259 5.36411 4.6875 6.31794 4.6875 7.3125C4.6875 8.30706 5.08259 9.26089 5.78585 9.96415C6.48911 10.6674 7.44294 11.0625 8.4375 11.0625C9.43206 11.0625 10.3859 10.6674 11.0892 9.96415C11.7924 9.26089 12.1875 8.30706 12.1875 7.3125C12.1875 6.31794 11.7924 5.36411 11.0892 4.66085C10.3859 3.95759 9.43206 3.5625 8.4375 3.5625Z" fill="#4285F4"/>
</svg>
