<svg width="32" height="27" viewBox="0 0 32 27" fill="none" xmlns="http://www.w3.org/2000/svg">
<path d="M19.96 1.00163H12.04C11.0826 1.00141 10.1346 1.21073 9.25007 1.61763C8.36552 2.02453 7.56179 2.62104 6.88476 3.37309C6.20774 4.12515 5.67068 5.01801 5.30427 6.00069C4.93786 6.98337 4.74927 8.03662 4.74927 9.10029V17.8997C4.74927 20.048 5.5174 22.1084 6.88467 23.6275C8.25195 25.1466 10.1064 26 12.04 26H19.96C21.8936 26 23.748 25.1466 25.1153 23.6275C26.4826 22.1084 27.2507 20.048 27.2507 17.8997V9.10029C27.2507 6.95196 26.4826 4.89162 25.1153 3.37252C23.748 1.85342 21.8936 1 19.96 1V1.00163Z" stroke="white" stroke-width="1.5"/>
<path d="M27.1307 19.3338H29.5C29.8978 19.3338 30.2794 19.1582 30.5607 18.8456C30.842 18.5331 31 18.1092 31 17.6672V9.3344C31 8.89241 30.842 8.46851 30.5607 8.15597C30.2794 7.84343 29.8978 7.66785 29.5 7.66785H27.1293M4.87073 19.3338H2.5C2.30302 19.3338 2.10796 19.2906 1.92597 19.2069C1.74399 19.1231 1.57863 19.0004 1.43934 18.8456C1.30005 18.6909 1.18956 18.5072 1.11418 18.305C1.0388 18.1028 1 17.8861 1 17.6672V9.3344C1 8.89241 1.15804 8.46851 1.43934 8.15597C1.72064 7.84343 2.10218 7.66785 2.5 7.66785H4.87073" stroke="white" stroke-width="1.5"/>
<path d="M2.48535 7.66745V1.00122M29.5 7.66745L29.4854 1.00122M18.9707 11.833H21.9693M11.5 9.91609V13.2492M13 18.4993C13.7979 19.3786 14.8762 19.872 16 19.872C17.1238 19.872 18.2021 19.3786 19 18.4993" stroke="white" stroke-width="1.5" stroke-linecap="round" stroke-linejoin="round"/>
</svg>
