<svg width="27" height="27" viewBox="0 0 27 27" fill="none" xmlns="http://www.w3.org/2000/svg">
<path fill-rule="evenodd" clip-rule="evenodd" d="M23.2367 3.76457L4.87337 10.4044L10.9911 13.9452L16.3855 8.54936C16.6591 8.27591 17.0302 8.12237 17.417 8.12251C17.8039 8.12264 18.1748 8.27645 18.4483 8.55009C18.7217 8.82374 18.8753 9.1948 18.8751 9.58165C18.875 9.9685 18.7212 10.3395 18.4475 10.6129L13.0517 16.0087L16.5955 22.125L23.2367 3.76457ZM23.7077 0.492072C25.4505 -0.139386 27.1392 1.54936 26.5077 3.29207L18.8048 24.591C18.1719 26.3381 15.7861 26.551 14.8542 24.9425L10.1627 16.8371L2.05733 12.1456C0.448786 11.2137 0.661703 8.82791 2.40879 8.19499L23.7077 0.492072Z" fill="white"/>
</svg>
