<svg width="24" height="24" viewBox="0 0 24 24" fill="none" xmlns="http://www.w3.org/2000/svg">
<path d="M2.9075 7.82008L3.9355 17.9536C4.04104 18.9944 4.52918 19.9589 5.30533 20.6603C6.08148 21.3618 7.09037 21.7501 8.1365 21.7501H15.8635C16.9096 21.7501 17.9185 21.3618 18.6947 20.6603C19.4708 19.9589 19.959 18.9944 20.0645 17.9536L21.0925 7.81958L2.9075 7.82008Z" stroke="black" stroke-linecap="round" stroke-linejoin="round"/>
<path d="M7.8165 7.82V6.412C7.8165 5.3026 8.25721 4.23864 9.04167 3.45418C9.82613 2.66971 10.8901 2.229 11.9995 2.229C13.1089 2.229 14.1729 2.66971 14.9573 3.45418C15.7418 4.23864 16.1825 5.3026 16.1825 6.412V7.8195" stroke="black" stroke-linecap="round" stroke-linejoin="round"/>
</svg>
