<svg width="24" height="24" viewBox="0 0 24 24" fill="none" xmlns="http://www.w3.org/2000/svg">
<g clip-path="url(#clip0_151_295)">
<path fill-rule="evenodd" clip-rule="evenodd" d="M12 0C10.7342 0 9.49683 0.375353 8.44436 1.07859C7.39188 1.78184 6.57158 2.78138 6.08718 3.95083C5.60278 5.12027 5.47604 6.4071 5.72298 7.64858C5.96993 8.89006 6.57947 10.0304 7.47453 10.9255C8.36958 11.8205 9.50995 12.4301 10.7514 12.677C11.9929 12.924 13.2797 12.7972 14.4492 12.3128C15.6186 11.8284 16.6182 11.0081 17.3214 9.95565C18.0247 8.90318 18.4 7.6658 18.4 6.4C18.4 4.70261 17.7257 3.07475 16.5255 1.87452C15.3253 0.674284 13.6974 0 12 0ZM12 1.6C12.9494 1.6 13.8774 1.88152 14.6667 2.40895C15.4561 2.93638 16.0713 3.68603 16.4346 4.56312C16.7979 5.44021 16.893 6.40532 16.7078 7.33643C16.5226 8.26754 16.0654 9.12282 15.3941 9.79411C14.7228 10.4654 13.8676 10.9226 12.9364 11.1078C12.0053 11.293 11.0402 11.1979 10.1631 10.8346C9.28604 10.4713 8.53639 9.85609 8.00896 9.06674C7.48152 8.27738 7.20001 7.34935 7.20001 6.4C7.20001 5.12696 7.70572 3.90606 8.6059 3.00589C9.50607 2.10571 10.727 1.6 12 1.6Z" fill="black"/>
<path fill-rule="evenodd" clip-rule="evenodd" d="M12 14.5601C7.4744 14.5601 3.5536 15.5001 1.6 16.8161C1.14988 17.0619 0.767967 17.4158 0.48866 17.8459C0.209354 18.276 0.0414254 18.7689 0 19.2801C0.0414254 19.7912 0.209354 20.2841 0.48866 20.7142C0.767967 21.1444 1.14988 21.4983 1.6 21.7441C3.5536 23.0601 7.4744 24.0001 12 24.0001C16.5256 24.0001 20.4464 23.0601 22.4 21.7441C22.8501 21.4983 23.232 21.1444 23.5113 20.7142C23.7906 20.2841 23.9586 19.7912 24 19.2801C23.9586 18.7689 23.7906 18.276 23.5113 17.8459C23.232 17.4158 22.8501 17.0619 22.4 16.8161C20.4464 15.5001 16.5256 14.5601 12 14.5601ZM12 16.1601C14.9721 16.0647 17.9319 16.5846 20.6936 17.6873C21.1952 17.9068 21.654 18.2134 22.0488 18.5929C22.1575 18.6715 22.246 18.7747 22.3071 18.8942C22.3681 19.0137 22.4 19.1459 22.4 19.2801C22.4 19.4142 22.3681 19.5465 22.3071 19.6659C22.246 19.7854 22.1575 19.8887 22.0488 19.9673C21.654 20.3467 21.1952 20.6533 20.6936 20.8729C17.9319 21.9755 14.9721 22.4955 12 22.4001C9.02786 22.4955 6.06808 21.9755 3.3064 20.8729C2.80477 20.6533 2.34596 20.3467 1.9512 19.9673C1.84248 19.8887 1.75397 19.7854 1.69292 19.6659C1.63188 19.5465 1.60005 19.4142 1.60005 19.2801C1.60005 19.1459 1.63188 19.0137 1.69292 18.8942C1.75397 18.7747 1.84248 18.6715 1.9512 18.5929C2.34596 18.2134 2.80477 17.9068 3.3064 17.6873C6.06808 16.5846 9.02786 16.0647 12 16.1601Z" fill="black"/>
</g>
<defs>
<clipPath id="clip0_151_295">
<rect width="24" height="24" fill="white"/>
</clipPath>
</defs>
</svg>
